<?xml version="1.0" encoding="UTF-8"?>
<svg version="1.1" xmlns="http://www.w3.org/2000/svg" width="144" height="144">
<path d="M0 0 C1.67345741 -0.01913956 1.67345741 -0.01913956 3.38072205 -0.03866577 C4.57967606 -0.04089142 5.77863007 -0.04311707 7.01391602 -0.04541016 C8.26100845 -0.05206696 9.50810089 -0.05872375 10.79298401 -0.06558228 C13.43505093 -0.07570636 16.07670655 -0.08126525 18.71875 -0.08007812 C21.40229486 -0.07991639 24.08515122 -0.09366935 26.76855469 -0.12109375 C30.6630503 -0.15808581 34.55676119 -0.16756774 38.45141602 -0.17041016 C39.63215195 -0.18478119 40.81288788 -0.19915222 42.02940369 -0.21395874 C59.85344224 -0.11808882 73.70639226 6.09380309 86.33032227 18.29052734 C87.27198242 19.06976562 87.27198242 19.06976562 88.23266602 19.86474609 C98.22069089 28.49385602 103.93255543 44.42133391 105.33032227 57.29052734 C106.31749208 74.68234404 102.40095404 92.40048421 90.90600586 105.97216797 C79.8688573 118.25327864 66.99139909 127.05671742 50.11825562 128.58062744 C41.86321186 128.99969158 33.61066674 128.95116771 25.34783936 128.86700439 C22.64379608 128.8482712 19.94034725 128.86320602 17.23631287 128.87811375 C13.97589584 128.89127031 10.7157067 128.87296925 7.45532227 128.85693359 C6.25625244 128.86189346 5.05718262 128.86685333 3.82177734 128.8719635 C-3.10945942 128.77473798 -7.79656877 128.07576376 -13.66967773 124.29052734 C-13.99967773 123.63052734 -14.32967773 122.97052734 -14.66967773 122.29052734 C-13.51467773 122.10490234 -12.35967773 121.91927734 -11.16967773 121.72802734 C-5.91794704 120.41976703 -2.1522637 117.36989448 1.33032227 113.29052734 C2.55970732 110.66774884 2.55970732 110.66774884 3.33032227 108.29052734 C2.50790039 107.82904297 1.68547852 107.36755859 0.83813477 106.89208984 C-7.90000837 101.78643115 -17.00808252 96.22793206 -21.29467773 86.66552734 C-21.72292629 82.81129035 -21.8056662 79.1661985 -21.66967773 75.29052734 C-18.26079403 76.42682191 -17.91304954 77.04964885 -15.98217773 79.91552734 C-9.11933394 89.31029409 0.70309046 95.06040468 10.33032227 101.29052734 C13.83557217 99.86907781 14.96120725 98.4051016 16.89282227 95.22802734 C18.84942667 92.85276086 20.32213107 91.49706484 23.38012695 90.87060547 C26.66962596 90.56148831 29.92195786 90.46937121 33.22509766 90.50317383 C38.97430385 90.54562271 43.08485111 89.73289441 48.33032227 87.29052734 C48.66032227 86.63052734 48.99032227 85.97052734 49.33032227 85.29052734 C48.77344727 85.28794922 48.21657227 85.28537109 47.64282227 85.28271484 C40.13565293 84.90228397 35.94754353 81.94365154 30.75610352 76.70068359 C28.42881766 74.07998634 26.73807373 71.82437339 26.33032227 68.29052734 C28.72863161 69.35644261 30.51274378 70.44688864 32.51782227 72.16552734 C41.07789227 78.63313579 49.88313667 79.66346344 60.33032227 78.29052734 C64.01981305 76.91369113 66.47811648 74.9721339 69.33032227 72.29052734 C70.1952832 71.52869141 71.06024414 70.76685547 71.95141602 69.98193359 C78.92848428 63.49093104 82.61913404 57.62872596 84.33032227 48.29052734 C82.79891602 48.72365234 82.79891602 48.72365234 81.23657227 49.16552734 C65.70822872 53.25059514 46.89914488 55.92541036 31.89282227 48.84130859 C27.85791686 46.39945273 24.52155271 43.7602378 21.33032227 40.29052734 C20.80438477 39.76845703 20.27844727 39.24638672 19.73657227 38.70849609 C15.82326404 34.24080253 15.78182881 29.96782404 16.02172852 24.18115234 C16.39893404 20.6478348 17.11785833 17.62480315 18.33032227 14.29052734 C12.85589376 15.40775765 9.84678629 17.18782262 5.81079102 21.04833984 C4.33032227 22.29052734 4.33032227 22.29052734 2.33032227 22.29052734 C2.9005416 16.94017145 3.53766587 11.61264883 4.33032227 6.29052734 C-0.08414989 8.68272734 -3.48598677 11.68513131 -7.10717773 15.10302734 C-7.92798828 15.86583008 -7.92798828 15.86583008 -8.76538086 16.64404297 C-11.56660856 19.25962718 -14.28963048 21.92306767 -16.95483398 24.67724609 C-19.66967773 27.29052734 -19.66967773 27.29052734 -21.66967773 27.29052734 C-22.14710121 20.0761282 -22.1217771 14.23967766 -17.66967773 8.29052734 C-12.53414308 2.82641583 -7.62009039 0.05945801 0 0 Z M87.33032227 36.29052734 C85.18223055 39.51266491 85.03646074 40.56828135 85.33032227 44.29052734 C86.38342503 45.56056057 86.38342503 45.56056057 88.76782227 45.47802734 C91.49766902 45.55892717 91.49766902 45.55892717 93.33032227 43.29052734 C93.58037612 40.24869841 93.58037612 40.24869841 93.33032227 37.29052734 C92.27602541 36.02580669 92.27602541 36.02580669 89.89282227 36.04052734 C89.04719727 36.12302734 88.20157227 36.20552734 87.33032227 36.29052734 Z " fill=" #4F7290" transform="translate(32.669677734375,8.70947265625)"/>
<path d="M0 0 C3.564 0.594 3.564 0.594 7.2 1.2 C7.2 3.576 7.2 5.952 7.2 8.4 C4.824 8.4 2.448 8.4 0 8.4 C0 5.628 0 2.856 0 0 Z" fill="#FF8B32" transform="translate(38,49)"/>
</svg>