<svg width="39" height="39" viewBox="0 0 39 39" fill="none" xmlns="http://www.w3.org/2000/svg">
<path fill-rule="evenodd" clip-rule="evenodd" d="M35.75 19.5C35.75 28.4746 28.4746 35.75 19.5 35.75C10.5254 35.75 3.25 28.4746 3.25 19.5C3.25 10.5254 10.5254 3.25 19.5 3.25C28.4746 3.25 35.75 10.5254 35.75 19.5ZM20.0823 15.2465C18.5017 15.9039 15.3429 17.2646 10.6057 19.3285C9.83641 19.6344 9.43344 19.9336 9.39676 20.2263C9.33476 20.7208 9.95406 20.9155 10.7974 21.1807C10.9121 21.2168 11.031 21.2542 11.1528 21.2938C11.9825 21.5635 13.0986 21.879 13.6788 21.8915C14.2051 21.9029 14.7925 21.6859 15.441 21.2406C19.8672 18.2528 22.1519 16.7427 22.2954 16.7101C22.3966 16.6872 22.5368 16.6583 22.6318 16.7427C22.7269 16.8272 22.7175 16.9871 22.7074 17.03C22.6461 17.2916 20.2151 19.5516 18.9571 20.7212C18.5649 21.0858 18.2867 21.3444 18.2299 21.4035C18.1025 21.5358 17.9726 21.661 17.8479 21.7813C17.077 22.5243 16.499 23.0816 17.8799 23.9915C18.5434 24.4288 19.0744 24.7904 19.6041 25.1511C20.1827 25.5451 20.7597 25.9381 21.5063 26.4275C21.6965 26.5522 21.8782 26.6817 22.0551 26.8078C22.7284 27.2878 23.3333 27.719 24.0806 27.6503C24.5148 27.6103 24.9633 27.202 25.1911 25.9843C25.7294 23.1064 26.7876 16.8708 27.0321 14.3013C27.0536 14.0762 27.0266 13.7881 27.005 13.6616C26.9833 13.5352 26.9381 13.355 26.7737 13.2216C26.579 13.0636 26.2784 13.0303 26.144 13.0326C25.5328 13.0434 24.5951 13.3695 20.0823 15.2465Z" fill="white"/>
</svg>
