<svg width="45" height="45" viewBox="0 0 45 45" fill="none" xmlns="http://www.w3.org/2000/svg">
<path d="M22.5708 6.16895C13.308 6.16895 5.7698 13.4296 5.76653 22.3526C5.76435 25.2061 6.53952 27.991 8.00927 30.4439L5.625 38.8302L14.5339 36.5799C17.012 37.8762 19.7675 38.5523 22.5642 38.5504H22.5708C31.8335 38.5504 39.3717 31.2887 39.375 22.3657C39.3772 18.0435 37.6309 13.975 34.4573 10.9168C31.2848 7.85753 27.066 6.17003 22.5708 6.16895ZM22.5708 35.8167H22.5653C20.0591 35.8167 17.6008 35.1678 15.456 33.9419L14.9444 33.6502L9.65976 34.9849L11.0707 30.0204L10.7387 29.512C9.34393 27.3848 8.60146 24.8963 8.60262 22.3526C8.60589 14.9352 14.8725 8.9027 22.5762 8.9027C26.3061 8.90378 29.8129 10.305 32.4508 12.8471C35.0887 15.3892 36.54 18.7697 36.5378 22.3646C36.5346 29.782 30.269 35.8167 22.5697 35.8167H22.5708ZM30.232 25.7407C29.8118 25.5393 27.7476 24.5605 27.3622 24.4244C26.9779 24.2905 26.6981 24.2208 26.4183 24.6258C26.1396 25.0308 25.3339 25.9421 25.09 26.211C24.844 26.481 24.599 26.5137 24.1788 26.3123C23.7585 26.1098 22.4053 25.683 20.8027 24.3047C19.554 23.2334 18.7113 21.9095 18.4663 21.5034C18.2214 21.0995 18.4402 20.8807 18.6503 20.6793C18.8387 20.4996 19.0706 20.2079 19.2796 19.9716C19.4886 19.7354 19.5583 19.5666 19.6998 19.2966C19.8392 19.0277 19.7695 18.7904 19.6639 18.5889C19.5583 18.3854 18.72 16.3952 18.3683 15.5863C18.0287 14.7981 17.6825 14.9037 17.4244 14.8906C17.1795 14.8797 16.9008 14.8764 16.6188 14.8764C16.3412 14.8764 15.885 14.9777 15.4996 15.3827C15.1153 15.7877 14.0298 16.7654 14.0298 18.7555C14.0298 20.7468 15.5344 22.6694 15.7446 22.9394C15.9547 23.2083 18.7058 27.2943 22.9181 29.0471C23.9197 29.4619 24.7014 29.7112 25.3121 29.8985C26.3181 30.2066 27.2337 30.1619 27.9566 30.0585C28.7623 29.942 30.441 29.0808 30.7894 28.1369C31.14 27.193 31.14 26.383 31.0355 26.2143C30.9331 26.0455 30.6523 25.9443 30.232 25.7407Z" fill="white"/>
</svg>
